<svg xmlns="http://www.w3.org/2000/svg" version="1.1" xmlns:xlink="http://www.w3.org/1999/xlink" xmlns:svgjs="http://svgjs.dev/svgjs" width="1500" height="1500" viewBox="0 0 1500 1500"><rect width="1500" height="1500" fill="#000000"></rect><g transform="matrix(0.6666666666666666,0,0,0.6666666666666666,250.00000000000017,187.66666666666674)"><svg viewBox="0 0 320 360" data-background-color="#00ffef" preserveAspectRatio="xMidYMid meet" height="1687" width="1500" xmlns="http://www.w3.org/2000/svg" xmlns:xlink="http://www.w3.org/1999/xlink"><g id="tight-bounds" transform="matrix(1,0,0,1,0,0)"><svg viewBox="0 0 320 360" height="360" width="320"><g><svg></svg></g><g><svg viewBox="0 0 320 360" height="360" width="320"><g><path d="M20.961 227.22l3.726 4.658-1.863-6.056c-0.466-2.795-3.726 0.466-1.863 1.398M25.153 224.425c1.397 2.329 2.795 4.658 2.795 6.987 0 3.261 2.795 4.658 5.123 5.589-3.261-3.726-5.124-13.974-7.918-12.576M204.017 26.929c7.918 0 15.371-0.932 23.756 0.931 20.495 5.124 37.729 15.371 49.374 29.811l32.606 52.169c1.397 13.042 4.192 27.482 3.726 43.319 3.261 0 2.795-4.658 6.521-5.59-3.726 9.316-5.59 20.961-6.521 34.469-2.329-7.453 0-18.632 0.466-24.687-3.261 5.124-5.124 1.397-5.124-0.932 0.466-3.726-1.397-3.261-2.795-4.658-5.124-4.658-8.384-9.782-12.11-17.7 2.329-6.055 2.795-14.905-4.658-19.563-2.329-1.397-5.124-3.726-6.521-7.453-1.863-5.124-5.124-11.179-4.193-19.097 0.466-2.329-6.987 5.124-11.179 1.863-18.166-12.576-36.332-27.016-58.224-39.127-11.645 0-20.029-4.192-24.221-9.316-3.726-4.658-0.932-10.713 4.658-11.179 3.261 0 6.987-0.932 9.782 0.932 0.466-1.863 2.329-4.192 4.657-4.192M157.904 16.215l0.932 0.466c4.658 0.932 6.987 7.453 12.11 5.124 0 3.261 0.466 6.521-0.466 8.85-1.397 3.726-5.59 3.726-8.85 3.726-31.208-1.863-49.374 11.179-68.471 22.358-5.124 3.261-10.713 5.59-14.906 9.782-20.029 18.632-41.921 35.866-47.045 70.335l-4.192 38.195c-0.466 4.192-5.124 8.384-4.192 13.508l3.26 22.824c-3.261-3.261-5.124 0.932-4.192 2.795 0.466 1.397 2.329 6.055 5.124 1.863 3.726 6.987 7.453 20.495 12.576 26.55 15.837 18.632 36.332 35.4 53.101 52.169 4.192-0.932 7.453-0.932 8.384-3.727 1.397 2.795-1.397 5.59-3.726 6.056 7.453 4.658 15.837 8.85 27.016 9.781 14.44 0.932 27.948 3.261 40.524 6.522 6.521-1.863 13.042-2.795 20.029-3.261 2.329 0 3.726-3.726 6.521-4.658l0.466-4.658c2.795 4.192 2.329-1.397 0.466-4.192 3.261 2.795 4.192 5.124 5.589 6.987 0-1.397 3.726-6.521 3.727-0.466l0.931-6.055c1.397-0.932 1.863 5.124 3.261 0.931 1.397-4.192 4.192-0.932 6.987-2.329-0.932 1.863-0.466 5.59 2.794 3.261l3.727-3.261c2.329 5.59 6.055 3.261 7.918 2.329 20.495-13.042 40.99-28.413 60.553-43.784l-0.466 6.055 2.329-7.453c2.329 2.329 4.192 0.466 5.124-0.931 2.795-4.658 6.521-9.316 12.577-13.508-7.453 20.029-16.303 35.866-27.482 48.908l-4.658 5.59c0 3.261-0.932 7.453-4.658 7.918-1.863 0.466-5.59-0.932-8.384 1.863-1.397 1.863 3.261 5.59-0.466 2.795-3.261-2.329-6.521 0-10.248 0.932-2.795 0.932 1.863 3.726 2.795 5.589 0.932 1.863 1.863 3.726 1.398 6.056l-5.124-5.59c-6.055 3.261-9.782 9.316-14.906 13.974-2.329 1.863-1.397 5.124-1.397 7.918-3.261 0-6.987-0.932-8.85 0.932-1.397 1.863-0.932 4.658-0.932 7.453-4.658-0.466-5.124-7.453-9.315-6.056-4.192 0.932-8.85 1.397-12.577 3.727 2.795 5.59-4.658 2.329-3.726 3.26-6.987-4.192-13.042-7.453-20.495-4.658-15.837-5.124-35.4-2.795-49.84-0.931 0-2.329 0.466-4.658-0.466-5.124-0.932 2.329-3.726 1.397-3.26 1.397-8.85-6.055-17.7-9.782-27.016-14.905-8.384 0.932-16.303-3.261-18.632-5.59-6.521-6.055-13.974-2.795-20.029-4.192-13.042-3.261-17.7-16.769-19.098-26.084-0.932-4.658-4.658-6.521-6.055-6.056-6.055-19.563-15.371-37.263-22.824-55.429-1.863-4.658-1.397-9.316-1.397-14.44 2.329 0.932 4.658 0.466 4.192-2.794-2.329-15.371-7.918-27.016-13.974-38.195 3.261-15.837 3.726-34.469 11.179-48.443 6.521-12.576 18.632-19.098 27.016-29.811 2.795-3.726 2.795-8.85 5.59-12.11 9.316-9.316 18.632-19.098 28.879-27.482 4.658-3.726 10.247 0 17.234-1.397 2.329-8.384 11.645-15.837 20.495-13.508 3.726 0.932 11.179-8.85 13.508-9.782 3.726-1.397 1.863 3.726 1.863 6.987 8.85-6.987 20.961-10.713 32.14-14.906" fill="#ffffff" fill-rule="nonzero" stroke="none" stroke-width="1" stroke-linecap="butt" stroke-linejoin="miter" stroke-miterlimit="10" stroke-dasharray="" stroke-dashoffset="0" font-family="none" font-weight="none" font-size="none" text-anchor="none" style="mix-blend-mode: normal" data-fill-palette-color="tertiary"></path></g><g transform="matrix(1,0,0,1,64,131.28873907773385)"><svg viewBox="0 0 192 97.42252184453227" height="97.42252184453227" width="192"><g><svg viewBox="0 0 192 97.42252184453227" height="97.42252184453227" width="192"><g><svg viewBox="0 0 192 97.42252184453227" height="97.42252184453227" width="192"><g><svg viewBox="0 0 192 97.42252184453227" height="97.42252184453227" width="192"><g id="textblocktransform"><svg viewBox="0 0 192 97.42252184453227" height="97.42252184453227" width="192" id="textblock"><g><svg viewBox="0 0 192 55.23056653491436" height="55.23056653491436" width="192"><g transform="matrix(1,0,0,1,0,0)"><svg width="192" viewBox="5.86 -35.01 166.76 47.97" height="55.23056653491436" data-palette-color="#374151"><path d="M20.04-35.01L20.04-35.01Q24.05-35.01 28.66-33.62L28.66-33.62 27.32-29.83Q22.92-31.1 19.7-31.1L19.7-31.1Q16.09-31.1 13.59-29.58 11.08-28.05 11.08-25.63L11.08-25.63Q11.08-24.29 11.89-23.24 12.7-22.19 14.01-21.53 15.33-20.87 17.02-20.23 18.7-19.58 20.45-19.04 22.19-18.51 23.88-17.68 25.56-16.85 26.88-15.86 28.2-14.87 29-13.28 29.81-11.69 29.81-9.69L29.81-9.69Q29.81-8.3 29.37-6.92 28.93-5.54 27.91-4.19 26.88-2.83 25.37-1.81 23.85-0.78 21.55-0.15 19.24 0.49 16.41 0.49 13.57 0.49 11.19-0.1 8.81-0.68 5.86-1.86L5.86-1.86 7.28-5.88Q13.38-3.61 16.92-3.61L16.92-3.61Q20.63-3.61 22.96-5.1 25.29-6.59 25.29-9.08L25.29-9.08Q25.29-10.74 24.26-11.95 23.22-13.16 21.57-13.9 19.92-14.65 17.92-15.3 15.92-15.94 13.93-16.69 11.94-17.43 10.29-18.41 8.64-19.38 7.6-21.04 6.57-22.71 6.57-24.95L6.57-24.95Q6.57-26.95 7.53-28.78 8.5-30.62 10.21-31.99 11.91-33.37 14.48-34.19 17.04-35.01 20.04-35.01ZM48.17-24.58L48.17-24.58Q49.66-24.58 51.07-24.23 52.49-23.88 53.92-22.99 55.34-22.09 56.41-20.74 57.47-19.38 58.14-17.21 58.81-15.04 58.81-12.33L58.81-12.33Q58.81-6.4 55.65-2.95 52.49 0.49 47.46 0.49L47.46 0.49Q44.58 0.49 41.62-0.81L41.62-0.81 41.62 12.96 37.62 12.96 37.62-24.12 40.4-24.12 41.06-22.58Q44.48-24.58 48.17-24.58ZM46.8-21.26L46.8-21.26Q44.14-21.26 41.62-19.92L41.62-19.92 41.62-3.83Q44.24-2.66 46.87-2.66L46.87-2.66Q48-2.66 49.05-2.91 50.1-3.15 51.18-3.8 52.27-4.44 53.07-5.42 53.88-6.4 54.39-8.01 54.9-9.62 54.9-11.65L54.9-11.65Q54.9-13.94 54.37-15.7 53.83-17.46 53-18.48 52.17-19.51 51.05-20.17 49.92-20.83 48.9-21.04 47.87-21.26 46.8-21.26ZM65.99-30.08L65.99-34.69 70.72-34.69 70.72-30.08 65.99-30.08ZM66.35 0L66.35-24.12 70.36-24.12 70.36 0 66.35 0ZM77.92-11.5L77.92-11.5Q77.92-14.36 78.61-16.64 79.29-18.92 80.42-20.37 81.56-21.83 83.1-22.79 84.64-23.75 86.25-24.16 87.86-24.56 89.62-24.56L89.62-24.56Q93.08-24.56 96.38-23.12L96.38-23.12 95.4-20.19Q92.69-21.12 90.1-21.12L90.1-21.12Q88.84-21.12 87.71-20.89 86.59-20.65 85.48-20.04 84.37-19.43 83.57-18.47 82.78-17.5 82.29-15.94 81.8-14.38 81.8-12.35L81.8-12.35Q81.8-10.13 82.32-8.44 82.83-6.74 83.66-5.69 84.49-4.64 85.65-3.98 86.81-3.32 87.99-3.06 89.18-2.81 90.54-2.81L90.54-2.81Q92.84-2.81 95.13-3.61L95.13-3.61 96.11-0.85Q92.64 0.49 89.15 0.49L89.15 0.49Q87.54 0.49 86.06 0.17 84.59-0.15 83.06-0.99 81.54-1.83 80.42-3.13 79.31-4.42 78.62-6.58 77.92-8.74 77.92-11.5ZM106.39-24.12L107.14-22.31Q110.2-24.58 113.88-24.58L113.88-24.58Q116.42-24.58 118.5-23.63L118.5-23.63 117.28-20.43Q115.37-21.17 113.32-21.17L113.32-21.17Q110.27-21.17 107.58-19.48L107.58-19.48 107.58 0 103.58 0 103.58-24.12 106.39-24.12ZM133.65-24.58L133.65-24.58Q138.66-24.58 141.89-21.39 145.13-18.19 145.13-12.55L145.13-12.55Q145.13-6.57 141.82-3.04 138.51 0.49 133.26 0.49L133.26 0.49Q128.26 0.49 125.09-2.82 121.91-6.13 121.91-11.79L121.91-11.79Q121.91-17.63 125.15-21.11 128.38-24.58 133.65-24.58ZM133.31-21.17L133.31-21.17Q130.31-21.17 128.06-18.85 125.82-16.53 125.82-12.48L125.82-12.48Q125.82-8.45 128.01-5.69 130.21-2.93 133.7-2.93L133.7-2.93Q136.93-2.93 139.07-5.37 141.22-7.81 141.22-11.74L141.22-11.74Q141.22-13.99 140.53-15.82 139.83-17.65 138.7-18.8 137.56-19.95 136.17-20.56 134.78-21.17 133.31-21.17ZM152.69 0L152.69-24.12 155.5-24.12 156.38-22.07Q161.04-24.61 164.88-24.61L164.88-24.61Q166.86-24.61 168.32-23.99 169.78-23.36 170.59-22.42 171.4-21.48 171.87-20.06 172.35-18.63 172.48-17.33 172.62-16.04 172.62-14.38L172.62-14.38 172.62 0 168.61 0 168.61-14.65Q168.61-21 163.14-21L163.14-21Q160.31-21 156.7-19.12L156.7-19.12 156.7 0 152.69 0Z" opacity="1" transform="matrix(1,0,0,1,0,0)" fill="#ffffff" class="wordmark-text-0" data-fill-palette-color="primary" id="text-0"></path></svg></g></svg></g><g transform="matrix(1,0,0,1,0,63.2900317259552)"><svg viewBox="0 0 192 34.132490118577074" height="34.132490118577074" width="192"><g transform="matrix(1,0,0,1,0,0)"><svg width="192" viewBox="1.76 -33.89 252.97 44.971718691651006" height="34.132490118577074" data-palette-color="#374151"><path d="M22.31-8.59L22.31-8.59Q22.31-11.72 20.21-13.94 18.12-16.16 13.62-16.16L13.62-16.16Q12.55-16.16 10.11-15.97L10.11-15.97Q9.91-15.38 9.91-14.36L9.91-14.36 9.91-7.23Q9.91-3.52 10.69-2.88L10.69-2.88Q11.43-2.2 13.33-2.2L13.33-2.2Q14.55-2.2 15.75-2.39 16.94-2.59 18.6-3.15 20.26-3.71 21.29-5.1 22.31-6.49 22.31-8.59ZM5.66-6.98L5.66-6.98 5.66-25.44Q5.66-28.32 5.32-29.64L5.32-29.64Q5.18-30.03 3.88-30.37 2.59-30.71 1.95-30.71L1.95-30.71Q1.76-30.71 1.76-31.3L1.76-31.3Q1.76-31.93 1.95-32.13L1.95-32.13Q4.49-32.03 7.76-32.03L7.76-32.03Q10.25-32.03 11.84-32.06 13.43-32.08 14.65-32.08L14.65-32.08Q15.92-32.08 17.24-31.86 18.55-31.64 19.95-31.05 21.34-30.47 22.41-29.59 23.49-28.71 24.17-27.27 24.85-25.83 24.85-24.07 24.85-22.31 23.73-20.8 22.61-19.29 21.66-18.7 20.7-18.12 20.02-17.87L20.02-17.87Q19.63-17.72 19.78-17.58L19.78-17.58Q21.68-17.24 24.32-14.82 26.95-12.4 26.95-9.13L26.95-9.13Q26.95-4.93 23.56-2.47 20.17 0 14.55 0L14.55 0 7.86 0 1.95 0.15Q1.81 0 1.81-0.63 1.81-1.27 1.95-1.27L1.95-1.27Q2.59-1.27 3.83-1.61 5.08-1.95 5.32-2.39L5.32-2.39Q5.66-2.98 5.66-6.98ZM15.87-18.36L15.87-18.36Q17.87-18.55 19.21-19.75 20.56-20.95 20.56-22.95L20.56-22.95Q20.56-26.32 18.87-28.2 17.19-30.08 13.87-30.08L13.87-30.08Q11.62-30.08 10.4-29.74L10.4-29.74Q10.11-29.69 10.11-29.3L10.11-29.3 9.91-24.37 9.91-18.55Q9.91-18.21 13.13-18.21L13.13-18.21Q14.7-18.21 15.87-18.36ZM88.8-5.66L88.8-5.66 88.8-26.81Q88.8-28.47 88.51-29.93L88.51-29.93Q88.26-30.71 86.02-30.71L86.02-30.71 85.58-30.71Q85.29-30.71 85.29-31.25L85.29-31.25Q85.29-32.03 85.58-32.03L85.58-32.03Q87.04-32.18 88.29-32.42 89.53-32.67 90.24-32.91 90.95-33.15 91.44-33.37 91.93-33.59 92.17-33.74L92.17-33.74 92.37-33.89 92.46-33.89Q92.66-33.89 92.85-33.62 93.05-33.35 93.1-33.11L93.1-33.11Q92.56-31.54 92.56-28.86L92.56-28.86 92.56-6.59Q92.56-3.76 92.95-2.25L92.95-2.25Q93.05-1.9 94.22-1.59 95.39-1.27 95.88-1.27L95.88-1.27Q96.03-1.27 96.08-0.68 96.13-0.1 96.03 0.15L96.03 0.15Q91.14-0.1 90.8-0.1L90.8-0.1Q90.51-0.1 85.48 0.15L85.48 0.15Q85.29-0.05 85.29-0.66 85.29-1.27 85.48-1.27L85.48-1.27Q86.07-1.27 87.21-1.59 88.36-1.9 88.46-2.25L88.46-2.25Q88.8-3.66 88.8-5.66ZM164.32-19.43L164.32-19.43Q161.73-19.43 160.1-17.07 158.46-14.7 158.46-11.28L158.46-11.28Q158.46-7.28 160.54-4.42 162.61-1.56 165.4-1.56L165.4-1.56Q167.98-1.56 169.64-4 171.3-6.45 171.3-9.86L171.3-9.86Q171.3-13.82 169.2-16.63 167.1-19.43 164.32-19.43ZM164.86-21.34L164.86-21.34Q169.25-21.34 172.38-18.16 175.5-14.99 175.5-10.55L175.5-10.55Q175.5-6.05 172.45-2.86 169.4 0.34 164.96 0.34 160.51 0.34 157.39-2.86 154.26-6.05 154.26-10.55L154.26-10.55Q154.26-15.09 157.29-18.21 160.32-21.34 164.86-21.34ZM251.51 4.15L251.51 4.15Q251.51 2.1 249.51 1.39 247.51 0.68 241.55 0.68L241.55 0.68Q241.45 0.68 241.26 0.78L241.26 0.78Q241.21 0.83 240.82 1 240.43 1.17 240.33 1.22 240.23 1.27 239.89 1.49 239.55 1.71 239.43 1.78 239.3 1.86 239.01 2.08 238.72 2.29 238.62 2.47 238.52 2.64 238.33 2.88 238.13 3.13 238.06 3.37 237.99 3.61 237.91 3.93 237.84 4.25 237.84 4.59L237.84 4.59Q237.84 6.69 240.01 7.98 242.18 9.28 244.82 9.28L244.82 9.28Q247.75 9.28 249.63 7.71 251.51 6.15 251.51 4.15ZM239.01-14.45L239.01-14.45Q239.01-12.21 240.4-10.64 241.79-9.08 243.65-9.08L243.65-9.08Q245.55-9.08 246.8-10.55 248.04-12.01 248.04-14.06L248.04-14.06Q248.04-16.31 246.65-17.87 245.26-19.43 243.41-19.43L243.41-19.43Q241.5-19.43 240.26-17.97 239.01-16.5 239.01-14.45ZM243.6-21.09L243.6-21.09Q245.41-21.09 247.75-20.46 250.1-19.82 251.61-19.82L251.61-19.82 254.44-19.82Q254.73-19.73 254.73-18.6L254.73-18.6Q254.73-17.92 254.44-17.92L254.44-17.92 250.97-17.92Q250.78-17.92 250.78-17.77L250.78-17.77 251.27-16.6Q251.8-15.43 251.8-14.26L251.8-14.26Q251.8-11.62 249.46-9.52 247.12-7.42 243.7-7.42L243.7-7.42Q242.14-7.42 240.96-7.62L240.96-7.62Q240.33-7.28 239.62-6.4 238.91-5.52 238.91-4.83 238.91-4.15 239.3-3.74 239.69-3.32 240.43-3.15 241.16-2.98 241.84-2.91 242.53-2.83 243.45-2.83L243.45-2.83Q243.7-2.83 243.8-2.83L243.8-2.83Q249.85-2.73 252.29-1.59 254.73-0.44 254.73 1.86L254.73 1.86Q254.73 5.62 251.56 8.33 248.39 11.04 243.41 11.08L243.41 11.08Q239.94 11.13 237.18 9.77 234.42 8.4 234.42 5.66L234.42 5.66Q234.42 2.64 239.21 0.49L239.21 0.49Q237.89 0.29 236.76-0.73 235.64-1.76 235.64-3.22L235.64-3.22Q235.64-4.49 236.74-5.86 237.84-7.23 239.21-8.11L239.21-8.11Q237.74-8.64 236.5-10.42 235.25-12.21 235.25-14.26L235.25-14.26Q235.25-17.14 237.67-19.12 240.09-21.09 243.6-21.09Z" opacity="1" transform="matrix(1,0,0,1,0,0)" fill="#ffffff" class="slogan-text-1" data-fill-palette-color="secondary" id="text-1"></path></svg></g></svg></g></svg></g></svg></g><g></g></svg></g></svg></g></svg></g></svg></g><defs></defs></svg><rect width="320" height="360" fill="none" stroke="none" visibility="hidden"></rect></g></svg></g></svg>